<svg width="18" height="18" viewBox="0 0 18 18" fill="none" xmlns="http://www.w3.org/2000/svg">
    <g clip-path="url(#clip0_46_2116)">
        <path d="M15.369 5.97675L8.21551 0.731248C7.65677 0.322112 6.99566 0.0756823 6.30545 0.0192752C5.61524 -0.0371319 4.92289 0.0986866 4.30514 0.411676C3.6874 0.724665 3.16839 1.2026 2.80564 1.7925C2.44289 2.38241 2.25057 3.06124 2.25 3.75375V14.25C2.24893 14.9432 2.44024 15.6231 2.80264 16.214C3.16505 16.8049 3.68432 17.2836 4.30267 17.5969C4.92103 17.9102 5.61419 18.0458 6.30501 17.9885C6.99583 17.9312 7.6572 17.6834 8.21551 17.2725L15.369 12.027C15.8437 11.6787 16.2296 11.2235 16.4957 10.6982C16.7617 10.173 16.9003 9.59251 16.9003 9.00375C16.9003 8.41499 16.7617 7.8345 16.4957 7.30927C16.2296 6.78404 15.8437 6.32883 15.369 5.9805V5.97675Z"
              fill="#7085EC"/>
    </g>
    <defs>
        <clipPath id="clip0_46_2116">
            <rect width="18" height="18" fill="white"/>
        </clipPath>
    </defs>
</svg>
