<svg width="24" height="24" viewBox="0 0 24 24" fill="none" xmlns="http://www.w3.org/2000/svg">
    <path d="M22.9565 10.9565H1.04346C0.467168 10.9565 0 11.4236 0 11.9999C0 12.5762 0.467168 13.0434 1.04346 13.0434H22.9565C23.5328 13.0434 24 12.5762 24 11.9999C24 11.4236 23.5328 10.9565 22.9565 10.9565Z"
          fill="#424D85"/>
    <path d="M1.04346 5.73908H22.9565C23.5328 5.73908 24 5.27191 24 4.69562C24 4.11933 23.5328 3.65216 22.9565 3.65216H1.04346C0.467168 3.65216 0 4.11933 0 4.69562C0 5.27191 0.467168 5.73908 1.04346 5.73908Z"
          fill="#424D85"/>
    <path d="M22.9565 18.2608H1.04346C0.467168 18.2608 0 18.728 0 19.3043C0 19.8806 0.467168 20.3478 1.04346 20.3478H22.9565C23.5328 20.3478 24 19.8806 24 19.3043C24 18.728 23.5328 18.2608 22.9565 18.2608Z"
          fill="#424D85"/>
</svg>
