<svg width="36" height="36" viewBox="0 0 36 36" fill="none" xmlns="http://www.w3.org/2000/svg">
    <g clip-path="url(#clip0_46_2152)">
        <path d="M30.738 11.9535L16.431 1.46251C15.3135 0.644239 13.9913 0.15138 12.6109 0.0385656C11.2305 -0.0742486 9.84578 0.197389 8.61029 0.823367C7.3748 1.44935 6.33677 2.40522 5.61127 3.58502C4.88577 4.76483 4.50114 6.12249 4.50001 7.50751V28.5C4.49785 29.8864 4.88048 31.2462 5.60528 32.428C6.33009 33.6098 7.36865 34.5673 8.60535 35.1939C9.84205 35.8205 11.2284 36.0916 12.61 35.977C13.9917 35.8625 15.3144 35.3667 16.431 34.545L30.738 24.054C31.6873 23.3573 32.4593 22.4469 32.9914 21.3965C33.5234 20.346 33.8007 19.185 33.8007 18.0075C33.8007 16.83 33.5234 15.669 32.9914 14.6186C32.4593 13.5681 31.6873 12.6577 30.738 11.961V11.9535Z"
              fill="white"/>
    </g>
    <defs>
        <clipPath id="clip0_46_2152">
            <rect width="36" height="36" fill="white"/>
        </clipPath>
    </defs>
</svg>
