<svg width="1415" height="992" viewBox="0 0 1415 992" fill="none" xmlns="http://www.w3.org/2000/svg">
    <path d="M979.523 134.893V135.393H980.023C1017 135.393 1046.98 165.373 1046.98 202.355C1046.98 239.337 1017 269.317 980.021 269.317H979.521V269.817V337.994H916.489C913.39 337.994 910.887 340.413 910.661 343.483C908.11 378.136 879.187 405.458 843.882 405.458C808.578 405.458 779.655 378.135 777.103 343.483C776.877 340.411 774.374 337.994 771.276 337.994H706.876V337.919V273.019C706.876 270.463 708.871 268.378 711.438 268.188C746.596 265.6 774.339 237.625 774.339 201.779C774.339 165.934 746.596 137.959 711.438 135.371C708.869 135.181 706.876 133.096 706.876 130.54V70.9872V66.1401H706.885H706.966H707.052H707.143H707.241H707.343H707.452H707.565H707.684H707.809H707.939H708.075H708.216H708.362H708.513H708.67H708.832H708.999H709.172H709.35H709.533H709.721H709.914H710.113H710.316H710.525H710.739H710.957H711.181H711.41H711.643H711.882H712.125H712.374H712.627H712.885H713.148H713.416H713.688H713.965H714.247H714.534H714.826H715.122H715.422H715.728H716.038H716.352H716.671H716.995H717.323H717.656H717.993H718.334H718.68H719.03H719.385H719.744H720.107H720.475H720.847H721.223H721.603H721.988H722.377H722.77H723.167H723.568H723.973H724.383H724.796H725.214H725.635H726.061H726.49H726.924H727.361H727.802H728.247H728.696H729.149H729.605H730.065H730.529H730.997H731.469H731.944H732.423H732.905H733.391H733.881H734.374H734.871H735.371H735.875H736.383H736.893H737.408H737.925H738.446H738.971H739.499H740.03H740.564H741.102H741.643H742.187H742.734H743.285H743.838H744.395H744.955H745.518H746.084H746.653H747.226H747.801H748.379H748.96H749.544H750.131H750.721H751.314H751.909H752.508H753.109H753.713H754.32H754.929H755.541H756.156H756.774H757.394H758.017H758.642H759.27H759.901H760.534H761.169H761.807H762.448H763.09H763.736H764.383H765.033H765.686H766.341H766.998H767.657H768.319H768.982H769.648H770.316H770.987H771.659H772.334H773.011H773.689H774.37H775.053H775.738H776.425H777.113H777.804H778.497H779.191H779.888H780.586H781.286H781.988H782.691H783.397H784.104H784.812H785.523H786.235H786.949H787.664H788.381H789.1H789.82H790.541H791.265H791.989H792.715H793.443H794.172H794.902H795.633H796.366H797.101H797.836H798.573H799.311H800.051H800.791H801.533H802.276H803.02H803.765H804.511H805.259H806.007H806.756H807.507H808.258H809.011H809.764H810.518H811.273H812.029H812.786H813.543H814.302H815.061H815.821H816.581H817.342H818.104H818.867H819.63H820.394H821.159H821.924H822.689H823.456H824.222H824.989H825.757H826.525H827.293H828.062H828.831H829.601H830.37H831.141H831.911H832.682H833.452H834.223H834.995H835.766H836.538H837.309H838.081H838.853H839.625H840.396H841.168H841.94H842.712H843.484H844.255H845.027H845.798H846.569H847.34H848.111H848.882H849.652H850.422H851.192H851.961H852.73H853.499H854.267H855.035H855.803H856.57H857.336H858.102H858.868H859.633H860.397H861.161H861.924H862.687H863.449H864.21H864.971H865.73H866.489H867.248H868.005H868.762H869.517H870.272H871.026H871.779H872.532H873.283H874.033H874.782H875.531H876.278H877.024H877.769H878.513H879.255H879.997H880.737H881.477H882.214H882.951H883.687H884.421H885.154H885.885H886.615H887.344H888.071H888.797H889.521H890.244H890.966H891.685H892.404H893.12H893.836H894.549H895.261H895.971H896.68H897.387H898.092H898.795H899.497H900.196H900.894H901.591H902.285H902.977H903.668H904.356H905.043H905.727H906.41H907.09H907.769H908.445H909.119H909.791H910.461H911.129H911.795H912.458H913.12H913.779H914.435H915.09H915.742H916.392H917.039H917.684H918.326H918.967H919.604H920.239H920.872H921.502H922.13H922.755H923.377H923.997H924.614H925.229H925.84H926.449H927.056H927.659H928.26H928.858H929.453H930.046H930.635H931.222H931.805H932.386H932.964H933.539H934.11H934.679H935.245H935.807H936.367H936.923H937.477H938.027H938.574H939.117H939.658H940.195H940.729H941.259H941.787H942.311H942.831H943.348H943.862H944.372H944.879H945.382H945.882H946.379H946.871H947.361H947.846H948.328H948.806H949.281H949.752H950.219H950.683H951.143H951.598H952.051H952.499H952.943H953.384H953.821H954.254H954.682H955.107H955.528H955.945H956.358H956.767H957.172H957.572H957.969H958.361H958.749H959.133H959.513H959.889H960.26H960.627H960.99H961.348H961.702H962.052H962.397H962.738H963.074H963.406H963.734H964.057H964.375H964.689H964.998H965.303H965.603H965.898H966.189H966.475H966.756H967.033H967.305H967.572H967.834H968.092H968.344H968.592H968.835H969.072H969.305H969.533H969.756H969.974H970.187H970.395H970.598H970.796H970.988H971.176H971.358H971.535H971.707H971.873H972.035H972.191H972.341H972.487H972.627H972.762H972.891H973.015H973.133H973.246H973.354H973.456H973.552H973.643H973.728H973.808H973.882H973.95H974.013H974.07H974.121H974.167H974.207C975.641 66.1401 976.966 66.8507 977.944 67.9619C978.922 69.0743 979.523 70.5569 979.523 72.0317V134.893Z"
          fill="#424D85" stroke="#424D85"/>
    <path d="M644.032 66.1395H707.242V129.172C707.242 132.202 709.564 134.773 712.601 134.992C747.317 137.479 774.706 166.431 774.706 201.78C774.706 237.128 747.315 266.08 712.601 268.568C709.562 268.786 707.242 271.355 707.242 274.387V337.419H639.563C639.294 300.114 608.971 269.958 571.603 269.958C534.236 269.958 503.912 300.114 503.643 337.419H435.964V70.9865C435.964 68.3096 438.134 66.1395 440.811 66.1395H499.172C502.146 66.1395 504.689 63.9034 504.977 60.9272C508.262 27.0136 536.825 0.5 571.602 0.5C606.378 0.5 634.942 27.0136 638.227 60.9271C638.515 63.9034 641.057 66.1395 644.032 66.1395Z"
          fill="#7085EC" stroke="#424D85"/>
    <path d="M708.245 406.595V338.418H771.277C773.799 338.418 775.919 340.347 776.098 342.848C778.623 378.082 808.006 405.881 843.884 405.881C879.759 405.881 909.142 378.083 911.67 342.85C911.849 340.349 913.969 338.419 916.491 338.419H979.523V604.849C979.523 607.526 977.353 609.697 974.676 609.697H916.491C913.459 609.697 910.89 612.018 910.672 615.055C908.185 649.769 879.232 677.16 843.884 677.16C808.536 677.16 779.584 649.769 777.096 615.055C776.878 612.016 774.309 609.697 771.277 609.697H708.245V541.519V541.019H707.745C670.763 541.019 640.783 511.039 640.783 474.057C640.783 437.074 670.763 407.095 707.745 407.095H708.245V406.595Z"
          fill="#FFD596" stroke="#424D85"/>
    <path d="M639.064 338.419H707.243V406.099C669.939 406.367 639.781 436.69 639.781 474.059C639.781 511.426 669.938 541.751 707.243 542.019V609.698H440.81C438.133 609.698 435.963 607.528 435.963 604.851V546.665C435.963 543.567 433.545 541.064 430.474 540.837C395.821 538.286 368.5 509.363 368.5 474.059C368.5 438.754 395.821 409.831 430.474 407.28L430.438 406.781L430.474 407.28C433.546 407.054 435.963 404.551 435.963 401.452V338.419H504.141H504.641V337.919C504.641 300.936 534.62 270.958 571.603 270.958C608.585 270.958 638.564 300.936 638.564 337.919V338.419H639.064Z"
          fill="#424D85" stroke="#424D85"/>
    <path d="M57.7683 789.722C61.5971 787.489 67.3401 785.368 74.9975 783.359C82.8801 781.349 90.7627 780.345 98.6454 780.345C109.906 780.345 119.816 782.019 128.374 785.368C137.158 788.494 142.788 793.517 145.265 800.439C149.319 812.048 153.711 825.556 158.441 840.961C163.17 856.367 167.9 872.33 172.629 888.852C177.359 905.15 181.976 921.337 186.48 937.412C190.985 953.264 194.926 967.33 198.304 979.609C195.602 982.735 191.548 985.191 186.142 986.977C180.737 988.986 174.319 989.991 166.886 989.991C161.481 989.991 156.864 989.545 153.035 988.651C149.432 987.758 146.392 986.419 143.914 984.633C141.662 982.847 139.748 980.502 138.171 977.6C136.82 974.697 135.581 971.348 134.455 967.553L128.374 944.445H67.2275C65.4258 951.143 63.624 958.064 61.8223 965.209C60.0205 972.353 58.2188 979.274 56.4171 985.972C53.264 987.089 49.8857 987.982 46.2822 988.651C42.904 989.545 38.7375 989.991 33.7827 989.991C22.2966 989.991 13.7383 988.093 8.10784 984.298C2.70261 980.279 0 974.809 0 967.888C0 964.762 0.450435 961.636 1.35131 958.511C2.25218 955.385 3.26566 951.701 4.39175 947.459C5.96827 941.431 8.10784 933.951 10.8105 925.021C13.7383 916.09 16.8913 906.49 20.2696 896.22C23.6479 885.726 27.2513 875.009 31.08 864.069C34.9087 853.129 38.5122 842.859 41.8905 833.259C45.2688 823.435 48.3092 814.728 51.0118 807.137C53.9397 799.546 56.1918 793.741 57.7683 789.722ZM98.3076 832.924C95.1545 842.301 91.551 852.794 87.4971 864.404C83.6684 875.791 80.1775 887.401 77.0245 899.234H118.915C115.762 887.177 112.496 875.456 109.118 864.069C105.965 852.46 103.037 842.078 100.335 832.924H98.3076Z"
          fill="#424D85"/>
    <path d="M402.447 911.625C402.447 923.681 400.307 934.733 396.028 944.78C391.974 954.603 386.006 963.088 378.123 970.232C370.24 977.153 360.669 982.512 349.408 986.307C338.147 990.103 325.422 992 311.233 992C297.045 992 284.32 990.103 273.059 986.307C261.798 982.512 252.226 977.153 244.344 970.232C236.461 963.088 230.38 954.603 226.101 944.78C222.047 934.733 220.02 923.681 220.02 911.625V783.694C222.498 783.247 226.439 782.689 231.844 782.019C237.249 781.126 242.429 780.68 247.384 780.68C252.564 780.68 257.068 781.126 260.897 782.019C264.951 782.689 268.329 784.029 271.032 786.038C273.735 788.047 275.762 790.838 277.113 794.411C278.464 797.983 279.14 802.671 279.14 808.476V910.62C279.14 921.337 282.068 929.709 287.923 935.738C294.004 941.766 301.774 944.78 311.233 944.78C320.918 944.78 328.688 941.766 334.543 935.738C340.399 929.709 343.327 921.337 343.327 910.62V783.694C345.804 783.247 349.746 782.689 355.151 782.019C360.556 781.126 365.736 780.68 370.691 780.68C375.871 780.68 380.375 781.126 384.204 782.019C388.258 782.689 391.636 784.029 394.339 786.038C397.041 788.047 399.068 790.838 400.42 794.411C401.771 797.983 402.447 802.671 402.447 808.476V911.625Z"
          fill="#424D85"/>
    <path d="M504.153 921.002V985.303C501.676 985.972 497.735 986.642 492.33 987.312C487.15 987.982 481.97 988.317 476.79 988.317C471.61 988.317 466.993 987.87 462.939 986.977C459.11 986.307 455.844 984.968 453.142 982.958C450.664 980.949 448.75 978.158 447.399 974.586C446.047 971.013 445.372 966.325 445.372 960.52V802.783C445.372 798.094 446.61 794.522 449.088 792.066C451.79 789.387 455.394 787.266 459.898 785.703C467.556 783.024 476.452 781.126 486.587 780.01C496.721 778.67 507.532 778 519.018 778C550.098 778 573.521 784.475 589.286 797.425C605.051 810.374 612.934 827.9 612.934 850.004C612.934 863.846 609.33 875.679 602.123 885.503C594.916 895.327 586.358 902.918 576.448 908.276C584.556 919.216 592.551 929.486 600.434 939.087C608.317 948.687 614.51 957.394 619.015 965.209C616.762 973.023 612.596 979.051 606.515 983.293C600.659 987.312 594.015 989.321 586.583 989.321C581.628 989.321 577.349 988.763 573.746 987.647C570.142 986.53 566.989 984.968 564.287 982.958C561.584 980.949 559.107 978.493 556.854 975.59C554.602 972.688 552.463 969.562 550.436 966.213L522.058 921.002H504.153ZM525.436 876.461C533.995 876.461 540.751 874.34 545.706 870.098C550.661 865.632 553.138 859.157 553.138 850.673C553.138 842.189 550.323 835.826 544.693 831.584C539.287 827.119 530.617 824.886 518.68 824.886C515.302 824.886 512.599 824.998 510.572 825.221C508.545 825.444 506.293 825.779 503.816 826.226V876.461H525.436Z"
          fill="#424D85"/>
    <path d="M697.454 789.722C701.282 787.489 707.025 785.368 714.683 783.359C722.565 781.349 730.448 780.345 738.331 780.345C749.592 780.345 759.501 782.019 768.059 785.368C776.843 788.494 782.473 793.517 784.951 800.439C789.005 812.048 793.396 825.556 798.126 840.961C802.856 856.367 807.585 872.33 812.315 888.852C817.044 905.15 821.661 921.337 826.166 937.412C830.67 953.264 834.611 967.33 837.99 979.609C835.287 982.735 831.233 985.191 825.828 986.977C820.422 988.986 814.004 989.991 806.572 989.991C801.166 989.991 796.549 989.545 792.721 988.651C789.117 987.758 786.077 986.419 783.599 984.633C781.347 982.847 779.433 980.502 777.856 977.6C776.505 974.697 775.266 971.348 774.14 967.553L768.059 944.445H706.913C705.111 951.143 703.309 958.064 701.508 965.209C699.706 972.353 697.904 979.274 696.102 985.972C692.949 987.089 689.571 987.982 685.968 988.651C682.589 989.545 678.423 989.991 673.468 989.991C661.982 989.991 653.424 988.093 647.793 984.298C642.388 980.279 639.685 974.809 639.685 967.888C639.685 964.762 640.136 961.636 641.037 958.511C641.937 955.385 642.951 951.701 644.077 947.459C645.654 941.431 647.793 933.951 650.496 925.021C653.424 916.09 656.577 906.49 659.955 896.22C663.333 885.726 666.937 875.009 670.765 864.069C674.594 853.129 678.198 842.859 681.576 833.259C684.954 823.435 687.995 814.728 690.697 807.137C693.625 799.546 695.877 793.741 697.454 789.722ZM737.993 832.924C734.84 842.301 731.236 852.794 727.182 864.404C723.354 875.791 719.863 887.401 716.71 899.234H758.6C755.447 887.177 752.182 875.456 748.803 864.069C745.65 852.46 742.722 842.078 740.02 832.924H737.993Z"
          fill="#424D85"/>
    <path d="M844.34 830.58C842.763 828.124 841.299 824.775 839.948 820.533C838.596 816.291 837.921 811.825 837.921 807.137C837.921 798.429 839.835 792.178 843.664 788.382C847.718 784.587 852.898 782.689 859.204 782.689H1006.5C1008.07 785.145 1009.54 788.494 1010.89 792.736C1012.24 796.978 1012.91 801.443 1012.91 806.132C1012.91 814.839 1010.89 821.091 1006.83 824.886C1003.01 828.682 997.938 830.58 991.632 830.58H954.133V985.303C951.656 985.972 947.714 986.642 942.309 987.312C937.129 987.982 931.949 988.317 926.769 988.317C921.589 988.317 916.972 987.87 912.918 986.977C909.09 986.307 905.824 984.968 903.121 982.958C900.419 980.949 898.392 978.158 897.041 974.586C895.689 971.013 895.014 966.325 895.014 960.52V830.58H844.34Z"
          fill="#7085EC"/>
    <path d="M1041.52 814.839C1041.52 805.239 1044.33 797.648 1049.96 792.066C1055.59 786.485 1063.25 783.694 1072.93 783.694H1184.42C1185.99 786.15 1187.35 789.387 1188.47 793.406C1189.82 797.425 1190.5 801.667 1190.5 806.132C1190.5 814.616 1188.58 820.644 1184.76 824.216C1181.15 827.789 1176.31 829.575 1170.23 829.575H1098.95V860.72H1174.96C1176.53 863.176 1177.89 866.414 1179.01 870.432C1180.36 874.228 1181.04 878.358 1181.04 882.824C1181.04 891.308 1179.24 897.336 1175.63 900.908C1172.03 904.48 1167.19 906.267 1161.11 906.267H1098.95V941.431H1185.77C1187.35 943.887 1188.7 947.124 1189.82 951.143C1191.17 955.162 1191.85 959.404 1191.85 963.869C1191.85 972.353 1189.94 978.493 1186.11 982.288C1182.5 985.861 1177.66 987.647 1171.58 987.647H1072.93C1063.25 987.647 1055.59 984.856 1049.96 979.274C1044.33 973.693 1041.52 966.102 1041.52 956.501V814.839Z"
          fill="#7085EC"/>
    <path d="M1274.46 789.722C1278.29 787.489 1284.04 785.368 1291.69 783.359C1299.58 781.349 1307.46 780.345 1315.34 780.345C1326.6 780.345 1336.51 782.019 1345.07 785.368C1353.85 788.494 1359.48 793.517 1361.96 800.439C1366.02 812.048 1370.41 825.556 1375.14 840.961C1379.87 856.367 1384.6 872.33 1389.33 888.852C1394.05 905.15 1398.67 921.337 1403.18 937.412C1407.68 953.264 1411.62 967.33 1415 979.609C1412.3 982.735 1408.24 985.191 1402.84 986.977C1397.43 988.986 1391.01 989.991 1383.58 989.991C1378.18 989.991 1373.56 989.545 1369.73 988.651C1366.13 987.758 1363.09 986.419 1360.61 984.633C1358.36 982.847 1356.44 980.502 1354.87 977.6C1353.52 974.697 1352.28 971.348 1351.15 967.553L1345.07 944.445H1283.92C1282.12 951.143 1280.32 958.064 1278.52 965.209C1276.72 972.353 1274.91 979.274 1273.11 985.972C1269.96 987.089 1266.58 987.982 1262.98 988.651C1259.6 989.545 1255.43 989.991 1250.48 989.991C1238.99 989.991 1230.43 988.093 1224.8 984.298C1219.4 980.279 1216.7 974.809 1216.7 967.888C1216.7 964.762 1217.15 961.636 1218.05 958.511C1218.95 955.385 1219.96 951.701 1221.09 947.459C1222.66 941.431 1224.8 933.951 1227.51 925.021C1230.43 916.09 1233.59 906.49 1236.97 896.22C1240.34 885.726 1243.95 875.009 1247.78 864.069C1251.6 853.129 1255.21 842.859 1258.59 833.259C1261.96 823.435 1265 814.728 1267.71 807.137C1270.64 799.546 1272.89 793.741 1274.46 789.722ZM1315 832.924C1311.85 842.301 1308.25 852.794 1304.19 864.404C1300.36 875.791 1296.87 887.401 1293.72 899.234H1335.61C1332.46 887.177 1329.19 875.456 1325.81 864.069C1322.66 852.46 1319.73 842.078 1317.03 832.924H1315Z"
          fill="#7085EC"/>
</svg>
