<svg width="555" height="543" viewBox="0 0 555 543" fill="none" xmlns="http://www.w3.org/2000/svg">
    <path d="M515.942 328.773L516.24 329.119L515.942 328.773L500.306 342.212C484.988 355.375 475.323 373.558 473.095 393.41L467.626 442.139C458.268 525.511 361.069 569.569 285.692 522.205L208.035 473.407C191.914 463.279 172.629 458.226 153.73 459.191L147.407 459.514C73.8315 463.271 12.9504 402.54 18.2523 332.632L22.14 281.366L21.7347 281.336L22.14 281.366C22.8909 271.446 21.7925 261.506 18.8751 251.824L18.3964 251.968L18.8751 251.824L5.52121 207.517C-15.5712 137.529 34.1819 68.1379 109.076 63.5953L156.252 60.7337L156.222 60.2346L156.252 60.7337C177.875 59.4203 197.83 50.5314 212.434 35.6926C271.769 -24.5983 378.464 -3.04176 411.258 76.7054C420.766 99.8292 436.506 115.745 457.027 125.481L485.012 138.757C561.414 174.995 579.336 274.295 515.942 328.773Z"
          fill="#CCD2EF" stroke="#7085EC"/>
</svg>
