<svg width="176" height="219" viewBox="0 0 176 219" fill="none" xmlns="http://www.w3.org/2000/svg">
    <g clip-path="url(#clip0_93_314)">
        <path d="M120.799 20.3634L53.697 41.3892L48.6436 59.7697L57.3978 77.1153L53.2143 155.236L95.5172 189.18L135.231 171.749L134.32 84.7936L138.429 44.4484L120.799 20.3634Z"
              fill="white"/>
        <path d="M38.0944 136.654C54.2352 132.863 70.0441 127.466 71.0297 120.086C71.4873 116.471 73.212 114.22 74.293 112.478C75.3741 108.212 76.6815 101.675 76.6815 101.675C76.6815 101.675 58.1372 92.8051 57.3879 68.1648C54.8084 67.1552 53.4407 66.1556 53.4407 66.1556C53.4407 66.1556 55.7236 82.5219 52.2993 88.0244C48.8751 93.527 38.1346 113.23 36.9932 121.958C35.8518 130.687 38.0994 136.649 38.0994 136.649L38.0944 136.654Z"
              fill="#FFD596"/>
        <path d="M104.352 100.186C104.352 100.186 105.292 122.206 112.266 125.876C119.241 129.546 143.231 136.659 143.231 136.659C143.231 136.659 144.603 130.005 141.858 123.125C139.112 116.244 135.688 105.92 137.287 97.8937C138.886 89.867 149.169 60.9661 143.568 38.2542C137.971 15.5474 130.836 10.7163 120.799 5.95584C110.763 1.19538 95.1904 0.180696 86.3104 3.61852C77.4305 7.06139 65.3878 12.7911 59.9874 24.72C54.587 36.6489 51.8416 47.8862 51.8416 47.8862H59.9874L64.0502 39.8595C74.4638 43.0702 105.765 42.6108 118.099 30.9141C117.642 49.7237 121.021 63.3488 126.3 67.5439C131.354 68.7605 136.151 74.9496 132.953 79.9978C129.755 85.046 124.727 89.5338 117.873 86.1415C112.392 93.2998 104.357 100.18 104.357 100.18L104.352 100.186Z"
              fill="#FFD596"/>
        <path d="M1.27212 211.796C18.9415 219.919 148.028 224.503 174.637 206.935C169.272 176.792 166.074 155.458 151.452 140.551C135.457 132.984 117.868 130 117.868 130L106.217 140.324L114.212 166.933C114.212 166.933 109.42 176.636 102.788 178.63C99.3589 172.895 95.5122 161.198 95.5122 161.198C95.5122 161.198 88.5631 160.052 86.3054 148.583C78.6373 147.76 64.6335 136.82 62.577 128.592C46.582 132.984 33.3325 136.194 28.3042 141.243C23.2759 146.291 12.7668 158.906 8.20109 179.089C3.63038 199.272 1.26709 211.796 1.26709 211.796H1.27212Z"
              fill="#DEE4FF"/>
        <path d="M114.665 169.901C111.175 175.57 106.268 179.352 100.023 181.578C100.043 181.623 100.093 181.765 100.158 181.901C104.422 190.261 108.752 198.585 113.69 206.566C113.931 206.96 114.172 207.369 114.333 207.798C114.615 208.54 114.343 209.308 113.715 209.732C113.111 210.14 112.307 210.13 111.749 209.61C111.341 209.227 110.979 208.772 110.688 208.293C105.554 199.928 100.998 191.245 96.7341 182.406C96.4626 181.845 96.2212 181.234 96.1609 180.629C96.1056 180.078 96.2062 179.447 96.4375 178.943C96.9503 177.822 97.5688 176.752 98.1873 175.687C98.3834 175.348 98.3884 175.076 98.2627 174.727C96.8649 170.876 95.4569 167.029 94.1094 163.157C93.8378 162.379 93.4607 161.819 92.8221 161.294C89.5688 158.624 87.2407 155.236 85.5613 151.395C85.149 150.451 84.7216 149.905 83.56 149.668C80.7291 149.088 78.215 147.674 75.8667 145.988C70.7429 142.308 66.5845 137.694 62.939 132.58C62.3507 131.757 61.7624 130.939 61.149 130.081C60.445 130.404 59.7612 130.722 59.0723 131.035C55.6128 132.61 51.9472 133.569 48.3369 134.69C45.0132 135.725 41.6493 136.644 38.3658 137.8C31.0195 140.39 25.5688 145.317 21.4507 151.864C18.0515 157.266 15.5273 163.066 13.34 169.038C10.8259 175.899 8.89 182.926 7.30106 190.044C5.85291 196.556 4.6059 203.108 3.26838 209.646C3.19798 210.004 3.12758 210.363 3.00691 210.706C2.73538 211.498 2.02639 211.933 1.26712 211.806C0.50282 211.675 -0.0704044 211.039 -8.46813e-06 210.196C0.125699 208.621 0.266491 207.041 0.538018 205.491C2.13198 196.243 4.24889 187.106 6.80326 178.079C9.01068 170.275 11.7159 162.642 15.4419 155.418C17.3576 151.708 19.5801 148.189 22.2501 144.958C25.7247 140.743 29.9987 137.658 34.9516 135.452C35.1527 135.361 35.3539 135.271 35.6053 135.155C35.4243 134.428 35.2181 133.716 35.0773 132.994C34.4236 129.556 34.6197 126.138 35.3689 122.736C36.3595 118.208 38.3256 114.063 40.357 109.954C42.3381 105.951 44.5003 102.038 46.401 97.9998C48.9001 92.6941 50.6147 87.131 51.4796 81.3054C52.1332 76.9134 52.3595 72.5114 52.1483 68.0841C52.1332 67.8166 51.917 67.4985 51.7008 67.3067C49.4783 65.3682 47.9648 63.0107 47.4117 60.0878C46.6977 56.3218 47.5474 52.9395 49.9158 49.9308C50.1018 49.6935 50.2426 49.325 50.2275 49.0272C50.0867 46.4728 50.67 44.0295 51.3438 41.6114C53.5261 33.7968 56.89 26.487 61.4205 19.793C65.6543 13.5333 71.11 8.50022 77.8982 5.04725C82.4437 2.73517 87.2458 1.22071 92.3042 0.554351C103.507 -0.919724 114.157 0.872387 124.219 6.07708C124.792 6.37493 125.34 6.7182 125.888 7.06148C126.843 7.66222 127.145 8.66176 126.637 9.50481C126.135 10.3327 125.134 10.57 124.194 9.99953C119.356 7.07158 114.087 5.3249 108.571 4.25973C104.478 3.47221 100.354 3.34096 96.2011 3.58832C91.6556 3.85587 87.2709 4.80998 83.0321 6.46579C76.4199 9.04542 71.0396 13.2708 66.484 18.6824C63.11 22.6907 60.7668 27.2997 58.5242 31.9643C56.4475 36.2855 54.8133 40.7835 53.8227 45.4934C53.7272 45.9478 53.6618 46.4072 53.5864 46.8564C54.6072 46.6091 55.5776 46.2608 56.5682 46.1648C57.5738 46.0689 58.6046 46.2305 59.7159 46.281C60.0075 45.2461 60.3293 44.0446 60.6914 42.8583C61.0132 41.7982 61.3451 40.738 61.7473 39.7031C62.1747 38.6026 62.929 38.4512 64.0503 38.7995C65.8102 39.3498 67.6053 39.8495 69.4205 40.1524C73.951 40.8996 78.5267 40.8188 83.0874 40.521C91.379 39.9808 99.4645 38.4007 107.163 35.1648C110.084 33.9381 112.865 32.4186 115.419 30.5154C116.068 30.0308 116.656 29.4704 117.29 28.9656C117.777 28.5719 118.351 28.4659 118.949 28.6324C119.708 28.8445 120.141 29.5664 120.03 30.4447C119.824 32.1308 119.502 33.8119 119.397 35.503C119.271 37.5476 119.211 39.6022 119.306 41.6467C119.527 46.4879 120.498 51.1929 122.187 55.7362C123.354 58.8813 124.822 61.8748 126.999 64.4595C127.819 65.4338 128.774 66.2112 129.976 66.7716C132.636 68.0034 134.089 70.2902 134.783 73.0617C136.483 79.8363 132.123 86.6615 125.26 88.0397C123.138 88.4637 121.046 88.4132 118.949 87.656C118.647 88.1002 118.351 88.5546 118.029 88.9887C114.846 93.31 111.226 97.187 106.735 100.17C106.58 100.277 106.419 100.494 106.404 100.675C106.172 103.316 106.258 105.951 106.625 108.571C106.921 110.711 107.163 112.882 107.721 114.957C109.446 121.338 113.549 125.608 119.593 128.143C122.348 129.299 125.214 129.965 128.111 130.571C132.722 131.53 137.388 132.242 141.883 133.721C141.974 133.751 142.079 133.741 142.22 133.756C142.326 132.025 142.2 130.344 141.657 128.703C140.239 124.407 138.755 120.136 137.453 115.805C136.84 113.765 136.543 111.62 136.186 109.51C135.764 107.006 135.568 104.482 135.668 101.937C135.844 97.5757 136.372 93.2545 137.307 88.9938C138.786 82.2645 140.344 75.5504 141.762 68.806C142.275 66.3778 142.491 63.884 142.828 61.4155C143.462 56.756 143.603 52.0712 143.412 47.3815C143.1 39.5467 141.717 31.9491 138.263 24.8261C136.322 20.8229 133.637 17.4204 130.293 14.5227C129.679 13.9927 129.081 13.4475 128.498 12.8871C127.668 12.0945 127.568 11.0748 128.231 10.3428C128.895 9.61082 129.926 9.60578 130.776 10.363C133.732 13.0133 136.689 15.6636 138.876 19.0459C141.979 23.8367 143.985 29.0767 145.232 34.6247C146.781 41.5205 147.143 48.5173 146.781 55.5494C146.419 62.4604 145.343 69.2705 143.754 76.0098C142.416 81.6739 141.214 87.3683 140.088 93.0778C139.288 97.1264 138.947 101.246 139.228 105.37C139.54 109.924 140.435 114.371 142.009 118.687C143.211 121.984 144.246 125.351 145.282 128.708C145.881 130.652 145.855 132.666 145.664 134.68C145.649 134.857 145.775 135.165 145.916 135.23C152.699 138.264 157.265 143.58 160.925 149.835C164.078 155.221 166.391 160.976 168.146 166.938C169.644 172.032 170.931 177.191 172.153 182.36C173.129 186.49 173.923 190.665 174.667 194.844C175.17 197.651 175.452 200.498 175.824 203.33C175.889 203.83 175.94 204.335 176 204.84C176.126 205.971 175.588 206.824 174.657 206.955C173.742 207.086 172.988 206.455 172.807 205.355C172.43 203.058 172.058 200.761 171.726 198.459C170.947 193.067 169.911 187.732 168.618 182.446C167.447 177.66 166.28 172.87 164.882 168.145C163.118 162.162 160.825 156.377 157.601 151.006C155.268 147.124 152.543 143.575 148.837 140.884C145.835 138.703 142.471 137.31 138.911 136.432C135.376 135.558 131.796 134.862 128.231 134.099C125.26 133.463 122.258 132.953 119.422 131.782C119.261 131.717 118.954 131.792 118.818 131.919C115.625 134.968 112.412 138.002 108.857 140.632C108.058 141.222 108.058 141.702 108.289 142.53C109.813 148.038 111.326 153.555 112.749 159.093C113.066 160.335 113.544 161.481 114.217 162.511C117.747 167.958 120.608 173.788 123.952 179.341C127.291 184.884 130.514 190.498 133.788 196.081C135.558 199.1 137.332 202.114 139.097 205.138C139.299 205.481 139.47 205.865 139.55 206.253C139.711 207.011 139.394 207.682 138.786 208.025C138.192 208.358 137.418 208.288 136.87 207.783C136.593 207.526 136.352 207.207 136.161 206.884C131.545 199.039 126.919 191.205 122.338 183.34C119.804 178.988 117.355 174.591 114.866 170.214C114.806 170.108 114.74 170.012 114.69 169.927L114.665 169.901ZM64.0804 42.2878C63.5273 44.4989 62.934 46.7201 62.4211 48.9615C61.4356 53.2626 60.5053 57.5839 60.2237 61.996C59.9422 66.3677 59.7863 70.7344 60.5003 75.1062C61.1138 78.8671 62.039 82.5169 63.7285 85.9194C68.621 95.7634 76.5204 101.271 87.4771 102.124C92.9227 102.548 98.0365 101.226 102.808 98.55C107.661 95.829 111.568 92.0378 114.836 87.5904C117.667 83.7335 119.985 79.5587 121.82 75.1365C122.851 72.6578 123.736 70.1236 124.717 67.6247C124.842 67.3067 124.797 67.1452 124.601 66.8877C123.741 65.7367 122.816 64.6211 122.097 63.3843C117.571 55.5949 115.806 47.1139 115.952 38.1735C115.972 36.8408 116.098 35.5131 116.173 34.135C115.429 34.5893 114.705 35.0538 113.956 35.4879C105.825 40.1979 96.9202 42.3585 87.7033 43.4085C84.4199 43.7821 81.0962 43.8477 77.7875 43.9588C74.4689 44.0698 71.1653 43.8225 67.8969 43.2016C66.6398 42.9643 65.4029 42.6109 64.0754 42.2929L64.0804 42.2878ZM38.763 133.953C41.609 133.1 44.44 132.247 47.2709 131.399C51.9623 130 56.6436 128.607 61.0082 126.3C64.3972 124.513 67.4494 122.357 69.7222 119.212C69.9987 118.834 70.1546 118.475 70.0541 117.94C69.6618 115.815 70.1999 113.972 72.0201 112.695C72.5833 112.301 72.9252 111.938 73.0157 111.216C73.3928 108.288 73.8353 105.365 74.2778 102.447C74.3381 102.033 74.2175 101.852 73.8605 101.655C71.5072 100.372 69.3601 98.7923 67.4293 96.9245C62.4312 92.0934 59.4745 86.1314 57.8906 79.4325C57.1716 76.3935 56.7442 73.304 56.6386 70.1791C56.6336 70.0024 56.5129 69.7349 56.3721 69.6693C56.0603 69.5279 55.7033 69.4825 55.3312 69.3967C55.3312 69.5532 55.3312 69.6541 55.3312 69.7551C55.5525 74.0057 55.2458 78.226 54.6172 82.4261C53.6769 88.6707 51.7762 94.6225 49.0459 100.292C47.11 104.315 44.978 108.243 43.0119 112.256C41.2068 115.936 39.4972 119.662 38.6424 123.715C37.9233 127.138 37.873 130.54 38.7681 133.948L38.763 133.953ZM78.3608 129.93C78.9189 129.445 79.4419 129.026 79.9296 128.572C81.2923 127.284 82.8611 126.815 84.6662 127.365C88.0905 128.405 91.2231 130.041 94.1546 132.085C94.6323 132.418 95.0798 132.812 95.4972 133.221C96.1508 133.862 96.2162 134.725 95.7184 135.367C95.2106 136.023 94.3256 136.139 93.5361 135.649C93.3501 135.533 93.1741 135.392 92.9931 135.266C90.2124 133.297 87.2256 131.732 83.9925 130.646C83.2533 130.399 82.6197 130.535 82.1521 131.141C81.3979 132.11 80.6788 133.115 79.9648 134.115C79.8693 134.246 79.8391 134.458 79.8491 134.629C79.9095 135.518 79.9899 136.406 80.0855 137.29C80.1006 137.436 80.1559 137.638 80.2615 137.709C81.0559 138.244 81.8705 138.749 82.6801 139.264C82.7454 139.213 82.8108 139.158 82.8762 139.107C82.7002 138.749 82.5443 138.375 82.3381 138.037C82.1923 137.8 81.9459 137.628 81.775 137.406C81.2872 136.78 81.2671 136.003 81.7096 135.442C82.1722 134.857 83.0069 134.624 83.6757 135.033C84.7417 135.685 85.7021 136.482 85.9183 137.825C86.1798 139.44 86.3608 141.076 86.6524 142.686C87.0597 144.948 87.4419 147.215 88.4023 149.345C90.1923 153.323 92.5456 156.847 96.1106 159.462C96.4576 159.719 96.6185 160.254 96.8297 160.678C96.9252 160.87 96.9202 161.112 97.0006 161.319C98.8108 166.267 100.621 171.214 102.441 176.161C102.507 176.338 102.612 176.504 102.708 176.686C105.488 175.081 107.957 173.173 110.004 170.744C111.009 169.548 111.874 168.251 112.261 166.706C112.327 166.453 112.266 166.125 112.161 165.878C111.276 163.894 110.084 162.072 109.516 159.921C105.971 146.574 102.16 133.292 99.0321 119.833C98.9164 119.328 98.6801 119.02 98.1974 118.859C95.3664 117.885 92.5606 116.825 89.6996 115.941C87.1603 115.154 84.5707 114.538 81.9057 114.336C80.7894 114.25 79.8542 114.235 79.2709 115.608C78.6222 117.148 78.3658 118.667 78.4161 120.227C79.9346 120.378 81.3828 120.495 82.8209 120.676C87.7938 121.292 92.6512 122.408 97.3677 124.109C97.7398 124.245 98.1169 124.432 98.4186 124.68C98.8862 125.063 99.0773 125.593 98.9164 126.209C98.7555 126.82 98.3482 127.224 97.7448 127.294C97.2822 127.35 96.7844 127.284 96.3268 127.168C93.2294 126.381 90.1571 125.477 87.0396 124.786C84.0679 124.124 81.0459 123.695 77.9786 123.72C76.8623 123.73 76.631 123.897 76.7165 125.038C76.802 126.159 77.0786 127.264 77.2445 128.375C77.3652 129.193 77.8077 129.723 78.3759 129.935L78.3608 129.93ZM92.0126 105.486C92.0578 105.587 92.0679 105.628 92.093 105.653C92.259 105.804 92.4299 105.946 92.5908 106.097C95.824 109.081 98.6952 112.347 100.641 116.35C100.711 116.491 100.792 116.658 100.918 116.739C101.531 117.132 101.752 117.738 101.923 118.405C103.165 123.216 104.417 128.021 105.674 132.822C106.102 134.458 106.549 136.093 107.042 137.931C110.034 135.291 112.92 132.741 115.811 130.197C115.711 130.086 115.701 130.066 115.686 130.056C115.545 129.975 115.404 129.894 115.263 129.814C110.728 127.274 107.464 123.599 105.443 118.793C103.879 115.078 103.437 111.14 103.15 107.177C103.035 105.572 103.13 103.952 103.13 102.245C99.55 104.037 95.9095 105.128 92.0075 105.486H92.0126ZM76.9478 132.767C76.5405 132.484 76.1433 132.272 75.8215 131.974C75.0471 131.267 74.2728 130.561 73.961 129.485C73.4079 127.582 73.0107 125.674 73.3828 123.68C73.4079 123.544 73.3627 123.342 73.2722 123.251C72.8347 122.807 72.3671 122.393 71.8994 121.959C69.7775 124.745 67.0371 126.78 64.0402 128.587C64.7392 129.536 65.4129 130.465 66.0968 131.389C69.5211 135.998 73.3727 140.183 78.0943 143.494C79.8542 144.726 81.7649 145.645 83.8466 146.362C83.6656 145.352 83.5097 144.398 83.3136 143.454C83.2885 143.323 83.0823 143.211 82.9365 143.126C81.3576 142.197 79.7586 141.298 78.1948 140.344C77.4607 139.895 77.0031 139.193 76.8573 138.325C76.5456 136.477 76.3645 134.63 76.9428 132.752L76.9478 132.767ZM56.6336 66.1608C56.7391 64.3939 56.719 62.7179 56.9604 61.0823C57.4934 57.488 58.1471 53.9088 58.7655 50.3246C58.8812 49.6532 58.8259 49.532 58.142 49.4108C57.0459 49.219 56.0201 49.4563 55.0446 49.951C51.7762 51.5917 49.9057 55.711 50.7706 59.4265C51.5298 62.6775 53.4959 64.8836 56.6336 66.1658V66.1608ZM120.799 84.5615C122.047 84.8643 123.238 84.8442 124.44 84.6271C129.544 83.7033 132.802 78.6853 131.51 73.6472C131.057 71.8854 130.162 70.3912 128.397 69.6238C127.638 69.2957 127.542 69.3613 127.276 70.1387C125.893 74.1723 124.309 78.125 122.288 81.8859C121.81 82.7693 121.312 83.6427 120.799 84.5615ZM84.4802 111.287C84.4802 110.858 84.44 110.489 84.4903 110.136C84.6009 109.323 85.2093 108.742 85.9183 108.722C86.6373 108.702 87.1955 109.171 87.3614 110.014C87.4519 110.469 87.467 110.938 87.467 111.403C87.467 111.776 87.5525 111.943 87.9648 112.059C90.2678 112.705 92.5606 113.402 94.8535 114.083C95.0245 114.134 95.2005 114.169 95.5072 114.25C93.7473 111.948 91.9321 109.908 89.8102 108.167C88.9906 107.495 88.0855 106.905 87.1603 106.38C86.3708 105.936 85.9233 106.006 85.3451 106.718C84.269 108.051 83.2835 109.459 82.2627 110.842C82.2376 110.878 82.2677 110.953 82.2728 110.999C83.022 111.095 83.7561 111.191 84.4701 111.287H84.4802ZM77.4959 103.507C77.0987 106.385 76.7014 109.267 76.2992 112.17C77.1389 112.665 77.4356 112.579 77.863 111.802C78.5116 110.615 79.1603 109.429 79.8894 108.293C80.6235 107.147 81.4582 106.067 82.2326 104.981C80.6436 104.487 79.0597 103.992 77.5009 103.507H77.4959ZM75.4745 115.275C75.0823 115.042 74.5443 114.861 73.9711 115.179C73.3928 115.497 73.1112 116.012 73.1515 116.678C73.1766 117.057 73.1967 117.45 73.3124 117.809C73.6292 118.798 74.1219 119.692 74.8309 120.288C75.0421 118.657 75.2533 117.011 75.4796 115.275H75.4745Z"
              fill="#7085EC"/>
        <path d="M84.3395 81.4062C86.4011 81.5476 88.4325 82.1029 90.1773 83.4709C90.9165 84.0515 91.0673 84.8996 90.5846 85.5559C90.1371 86.1667 89.3124 86.3484 88.6386 85.884C87.0246 84.7683 85.2596 84.2534 83.2986 84.3392C82.4136 84.3796 81.7801 83.7536 81.7549 82.9611C81.7298 82.1736 82.3231 81.5476 83.193 81.4567C83.5349 81.4214 83.8769 81.4214 84.3294 81.4012L84.3395 81.4062Z"
              fill="#7085EC"/>
        <path d="M109.028 62.1423C109.013 63.4397 107.932 64.4897 106.645 64.4594C105.348 64.4342 104.322 63.3539 104.352 62.0514C104.382 60.7742 105.428 59.7596 106.7 59.7646C107.992 59.7697 109.043 60.8399 109.023 62.1373L109.028 62.1423Z"
              fill="#7085EC"/>
        <path d="M80.4626 56.9225C79.1854 56.9276 78.1395 55.8977 78.1194 54.6155C78.0993 53.308 79.1402 52.2378 80.4425 52.2277C81.7448 52.2226 82.7957 53.2828 82.7857 54.5953C82.7756 55.8775 81.7398 56.9175 80.4626 56.9225Z"
              fill="#7085EC"/>
        <path d="M91.8315 68.9725C91.7058 69.3814 91.565 70.0175 91.3035 70.6031C91.0722 71.113 90.5794 71.3098 90.0263 71.1534C89.4682 70.9918 89.1665 70.5577 89.2419 70.0074C89.3224 69.3966 89.4933 68.7757 89.7246 68.2052C89.9358 67.6953 90.4034 67.4631 90.9716 67.5843C91.4996 67.6953 91.8365 68.1699 91.8264 68.9776L91.8315 68.9725Z"
              fill="#7085EC"/>
    </g>
    <path d="M21.6003 73.1531C21.9511 73.6606 22.1664 74.1278 22.246 74.5548C22.331 74.9636 22.3289 75.3515 22.2395 75.7184C22.1555 76.0672 22.0381 76.3962 21.8871 76.7054C21.7299 77.0029 21.5785 77.2972 21.4329 77.5884C21.2874 77.8795 21.1956 78.1719 21.1575 78.4655C21.1311 78.7527 21.2069 79.0605 21.3847 79.3887C21.6197 79.8225 21.9351 80.0687 22.3307 80.1273C22.7264 80.1859 23.1412 80.0976 23.5749 79.8626C23.8446 79.7166 24.1069 79.529 24.3618 79.2998C24.6168 79.0707 24.8618 78.8091 25.0967 78.515C25.3317 78.2209 25.5363 77.9129 25.7107 77.591L27.0232 79.6777C26.8083 80.0368 26.5626 80.367 26.2861 80.6684C26.016 80.9816 25.721 81.2627 25.4011 81.5119C25.0928 81.7547 24.7687 81.9682 24.4288 82.1524C23.9481 82.4128 23.4501 82.5992 22.9347 82.7116C22.4257 82.8357 21.9314 82.8609 21.4517 82.7872C20.972 82.7135 20.5245 82.5313 20.1092 82.2407C19.7121 81.9554 19.3706 81.549 19.0848 81.0215C18.8117 80.5174 18.6682 80.0567 18.6545 79.6396C18.6408 79.2224 18.6935 78.8299 18.8127 78.462C18.9436 78.0878 19.093 77.7339 19.2611 77.4003C19.4344 77.0485 19.5902 76.7063 19.7285 76.3736C19.8784 76.0346 19.9507 75.6922 19.9453 75.3463C19.9399 75.0005 19.8175 74.6346 19.5781 74.2487L21.6003 73.1531ZM18.3408 69.8238C18.8918 69.5252 19.3657 69.4202 19.7623 69.5086C20.159 69.597 20.4907 69.8873 20.7575 70.3797C21.0242 70.8721 21.0895 71.3144 20.9532 71.7067C20.8106 72.0872 20.4638 72.4268 19.9128 72.7253C19.3618 73.0238 18.8821 73.1321 18.4737 73.05C18.059 72.9563 17.7182 72.6632 17.4515 72.1708C16.9307 71.2095 17.2271 70.4271 18.3408 69.8238ZM26.1869 73.0111C25.8297 72.4919 25.6145 72.0247 25.5412 71.6094C25.4679 71.1942 25.4732 70.8122 25.5572 70.4634C25.6349 70.1029 25.7523 69.7739 25.9096 69.4764C26.0605 69.1672 26.2087 68.867 26.3543 68.5758C26.4998 68.2847 26.5858 67.9955 26.6121 67.7082C26.6439 67.4029 26.574 67.092 26.4025 66.7755C26.1611 66.33 25.8458 66.0838 25.4565 66.0369C25.0725 65.972 24.6578 66.0602 24.2123 66.3016C23.9544 66.4413 23.6921 66.6289 23.4254 66.8644C23.1704 67.0935 22.9254 67.3551 22.6905 67.6492C22.4673 67.9369 22.2626 68.245 22.0765 68.5732L20.7721 66.4594C20.987 66.1003 21.2268 65.7733 21.4915 65.4782C21.768 65.1768 22.0662 64.9015 22.3861 64.6523C22.6997 64.3914 23.0207 64.1721 23.3489 63.9942C23.8413 63.7275 24.3393 63.5411 24.8429 63.435C25.3583 63.3226 25.8558 63.3033 26.3355 63.377C26.8152 63.4507 27.2568 63.6361 27.6604 63.933C28.0693 64.2119 28.4166 64.6152 28.7024 65.1427C28.9755 65.6468 29.119 66.1075 29.1327 66.5246C29.1581 66.9355 29.1054 67.328 28.9745 67.7022C28.8553 68.07 28.7059 68.4239 28.5261 68.764C28.3464 69.104 28.1906 69.4462 28.0587 69.7906C27.9205 70.1232 27.8483 70.4657 27.8419 70.8179C27.8473 71.1637 27.9697 71.5296 28.2091 71.9155L26.1869 73.0111ZM29.4464 76.3404C28.8954 76.639 28.4215 76.744 28.0249 76.6556C27.6282 76.5673 27.2965 76.2769 27.0297 75.7845C26.7566 75.2804 26.6914 74.8381 26.834 74.4575C26.9766 74.077 27.3234 73.7374 27.8744 73.4389C28.4371 73.134 28.9168 73.0258 29.3135 73.1142C29.7219 73.1962 30.0626 73.4893 30.3357 73.9934C30.8565 74.9547 30.5601 75.7371 29.4464 76.3404Z"
          fill="#E9ECFF"/>
    <defs>
        <clipPath id="clip0_93_314">
            <rect width="176" height="218.961" fill="white" transform="translate(0 0.0393677)"/>
        </clipPath>
    </defs>
</svg>
