<svg width="713" height="708" viewBox="0 0 713 708" fill="none" xmlns="http://www.w3.org/2000/svg">
    <g clip-path="url(#clip0_132_324)">
        <path d="M608.593 433.057L608.89 433.404L608.593 433.058L592.957 446.497C577.639 459.659 567.974 477.842 565.745 497.694L560.277 546.423C550.918 629.796 453.72 673.853 378.343 626.489L300.685 577.692C284.565 567.563 265.28 562.51 246.381 563.476L240.058 563.799C166.482 567.556 105.601 506.825 110.903 436.916L114.791 385.651L114.385 385.62L114.791 385.651C115.542 375.731 114.443 365.791 111.526 356.108L111.047 356.253L111.526 356.108L98.172 311.802C77.0796 241.814 126.833 172.423 201.726 167.88L248.903 165.018L248.873 164.519L248.903 165.018C270.526 163.705 290.481 154.816 305.085 139.977C364.42 79.6863 471.115 101.243 503.909 180.99C513.416 204.114 529.157 220.03 549.678 229.766L577.663 243.041C654.065 279.279 671.987 378.58 608.593 433.057Z"
              fill="#CCD2EF" stroke="#7085EC"/>
    </g>
    <defs>
        <clipPath id="clip0_132_324">
            <rect width="559.041" height="550.728" fill="white" transform="translate(186.299) rotate(19.772)"/>
        </clipPath>
    </defs>
</svg>
