<svg width="2607" height="418" viewBox="0 0 2607 418" fill="none" xmlns="http://www.w3.org/2000/svg">
    <g clip-path="url(#clip0_95_317)">
        <path d="M2603.87 -930.604C2850.85 -1292.95 2624.66 -1771.34 2188.68 -1850.8L2029.58 -1879.8C1913.55 -1900.96 1813.18 -1959.53 1734.3 -2062.71C1459.75 -2421.8 890.28 -2385.8 671.88 -1999.71C618.689 -1905.69 530.651 -1834.23 423.99 -1798.49L190 -1720.12C-182.984 -1595.2 -340.588 -1176.04 -138.445 -850.244L-11.0587 -644.946C16.6076 -600.35 35.4995 -552.022 45.0989 -501.306L94.9832 -237.553C163.317 123.76 554.26 348.263 921.542 229.138L952.988 218.94C1046.45 188.623 1149.99 187.962 1244.49 217.024L1702.19 357.806C2148.09 494.959 2580.48 139.776 2514.34 -295.379L2475.86 -548.486C2460.29 -650.942 2484.22 -755.057 2543.25 -841.648L2603.87 -930.604Z"
              fill="#E9ECFF"/>
    </g>
    <defs>
        <clipPath id="clip0_95_317">
            <rect width="2607" height="418" fill="white"/>
        </clipPath>
    </defs>
</svg>
