<svg width="2607" height="188" viewBox="0 0 2607 188" fill="none" xmlns="http://www.w3.org/2000/svg">
    <g clip-path="url(#clip0_95_317)">
        <path d="M-355.137 1258.48C-692.846 1616.63 -365.676 2100.24 246.341 2188.34L469.674 2220.49C632.554 2243.95 774.332 2304.57 887.024 2409.47C1279.25 2774.53 2075.57 2749.57 2372.74 2367.08C2445.12 2273.93 2566.77 2204.07 2715.28 2170.36L3041.07 2096.41C3560.39 1978.55 3771.74 1561.75 3481.6 1231.46L3298.76 1023.33C3259.05 978.118 3231.54 929.339 3216.98 878.35L3141.33 613.176C3037.71 249.915 2485.53 17.4072 1974.06 129.573L1930.27 139.175C1800.12 167.722 1655.2 166.365 1522.29 135.411L857.255 26.0991C233.939 -24.9902 -346.031 186.739 -243.848 623.924L-184.401 878.211C-160.34 981.145 -191.537 1084.97 -272.25 1170.56L-355.137 1258.48Z"
              fill="#424D85"/>
    </g>
    <defs>
        <clipPath id="clip0_95_317">
            <rect width="2607" height="188" fill="white" transform="matrix(-1 0 0 -1 2607 188)"/>
        </clipPath>
    </defs>
</svg>
